<svg width="761" height="510" viewBox="0 0 761 510" fill="none" xmlns="http://www.w3.org/2000/svg">
<rect width="761" height="510" fill="url(#paint0_radial_584_1580)" fill-opacity="0.8"/>
<rect width="761" height="510" fill="url(#paint1_radial_584_1580)" fill-opacity="0.4"/>
<mask id="mask0_584_1580" style="mask-type:alpha" maskUnits="userSpaceOnUse" x="490" y="0" width="271" height="156">
<rect x="490" width="270.762" height="156" fill="url(#paint2_radial_584_1580)"/>
</mask>
<g mask="url(#mask0_584_1580)">
<g opacity="0.6">
<g clip-path="url(#clip0_584_1580)">
<rect x="490" width="16" height="16" fill="white"/>
<rect x="530" width="16" height="16" fill="white"/>
<rect x="550" width="16" height="16" fill="white" fill-opacity="0.4"/>
<rect x="590" width="16" height="16" fill="white"/>
<rect x="610" width="16" height="16" fill="white" fill-opacity="0.4"/>
<rect x="630" width="16" height="16" fill="white"/>
<rect x="650" width="16" height="16" fill="white" fill-opacity="0.4"/>
<rect x="670" width="16" height="16" fill="white"/>
<rect x="690" width="16" height="16" fill="white" fill-opacity="0.4"/>
<rect x="710" width="16" height="16" fill="white"/>
<rect x="750" width="16" height="16" fill="white"/>
</g>
<g clip-path="url(#clip1_584_1580)">
<rect x="490" y="80" width="16" height="16" fill="white"/>
<rect x="510" y="80" width="16" height="16" fill="white" fill-opacity="0.6"/>
<rect x="530" y="80" width="16" height="16" fill="white"/>
<rect x="550" y="80" width="16" height="16" fill="white" fill-opacity="0.6"/>
<rect x="570" y="80" width="16" height="16" fill="white"/>
<rect x="610" y="80" width="16" height="16" fill="white"/>
<rect x="630" y="80" width="16" height="16" fill="white" fill-opacity="0.6"/>
<rect x="650" y="80" width="16" height="16" fill="white"/>
<rect x="670" y="80" width="16" height="16" fill="white" fill-opacity="0.4"/>
<rect x="690" y="80" width="16" height="16" fill="white" fill-opacity="0.6"/>
<rect x="730" y="80" width="16" height="16" fill="white"/>
<rect x="750" y="80" width="16" height="16" fill="white"/>
</g>
<g clip-path="url(#clip2_584_1580)">
<rect x="490" y="40" width="16" height="16" fill="white"/>
<rect x="510" y="40" width="16" height="16" fill="white" fill-opacity="0.6"/>
<rect x="530" y="40" width="16" height="16" fill="white" fill-opacity="0.6"/>
<rect x="550" y="40" width="16" height="16" fill="white" fill-opacity="0.4"/>
<rect x="570" y="40" width="16" height="16" fill="white" fill-opacity="0.6"/>
<rect x="610" y="40" width="16" height="16" fill="white" fill-opacity="0.4"/>
<rect x="630" y="40" width="16" height="16" fill="white"/>
<rect x="670" y="40" width="16" height="16" fill="white"/>
<rect x="730" y="40" width="16" height="16" fill="white"/>
</g>
<g clip-path="url(#clip3_584_1580)">
<rect x="490" y="120" width="16" height="16" fill="white"/>
<rect x="510" y="120" width="16" height="16" fill="white" fill-opacity="0.6"/>
<rect x="530" y="120" width="16" height="16" fill="white"/>
<rect x="550" y="120" width="16" height="16" fill="white" fill-opacity="0.6"/>
<rect x="590" y="120" width="16" height="16" fill="white" fill-opacity="0.4"/>
<rect x="610" y="120" width="16" height="16" fill="white" fill-opacity="0.6"/>
<rect x="630" y="120" width="16" height="16" fill="white" fill-opacity="0.6"/>
<rect x="650" y="120" width="16" height="16" fill="white"/>
<rect x="670" y="120" width="16" height="16" fill="white" fill-opacity="0.6"/>
<rect x="690" y="120" width="16" height="16" fill="white"/>
<rect x="710" y="120" width="16" height="16" fill="white" fill-opacity="0.4"/>
<rect x="730" y="120" width="16" height="16" fill="white"/>
</g>
<g clip-path="url(#clip4_584_1580)">
<rect x="510" y="20" width="16" height="16" fill="white" fill-opacity="0.4"/>
<rect x="530" y="20" width="16" height="16" fill="white" fill-opacity="0.6"/>
<rect x="550" y="20" width="16" height="16" fill="white" fill-opacity="0.6"/>
<rect x="570" y="20" width="16" height="16" fill="white"/>
<rect x="610" y="20" width="16" height="16" fill="white" fill-opacity="0.6"/>
<rect x="630" y="20" width="16" height="16" fill="white"/>
<rect x="650" y="20" width="16" height="16" fill="white" fill-opacity="0.6"/>
<rect x="670" y="20" width="16" height="16" fill="white"/>
<rect x="690" y="20" width="16" height="16" fill="white"/>
<rect x="730" y="20" width="16" height="16" fill="white" fill-opacity="0.6"/>
</g>
<g clip-path="url(#clip5_584_1580)">
<rect x="490" y="100" width="16" height="16" fill="white" fill-opacity="0.4"/>
<rect x="510" y="100" width="16" height="16" fill="white"/>
<rect x="530" y="100" width="16" height="16" fill="white"/>
<rect x="570" y="100" width="16" height="16" fill="white" fill-opacity="0.4"/>
<rect x="590" y="100" width="16" height="16" fill="white" fill-opacity="0.6"/>
<rect x="610" y="100" width="16" height="16" fill="white"/>
<rect x="630" y="100" width="16" height="16" fill="white"/>
<rect x="650" y="100" width="16" height="16" fill="white"/>
<rect x="670" y="100" width="16" height="16" fill="white" fill-opacity="0.4"/>
<rect x="690" y="100" width="16" height="16" fill="white" fill-opacity="0.6"/>
<rect x="710" y="100" width="16" height="16" fill="white"/>
<rect x="730" y="100" width="16" height="16" fill="white" fill-opacity="0.6"/>
</g>
<g clip-path="url(#clip6_584_1580)">
<rect x="510" y="60" width="16" height="16" fill="white" fill-opacity="0.4"/>
<rect x="530" y="60" width="16" height="16" fill="white"/>
<rect x="550" y="60" width="16" height="16" fill="white" fill-opacity="0.6"/>
<rect x="590" y="60" width="16" height="16" fill="white"/>
<rect x="610" y="60" width="16" height="16" fill="white" fill-opacity="0.6"/>
<rect x="630" y="60" width="16" height="16" fill="white" fill-opacity="0.4"/>
<rect x="650" y="60" width="16" height="16" fill="white" fill-opacity="0.6"/>
<rect x="670" y="60" width="16" height="16" fill="white"/>
<rect x="690" y="60" width="16" height="16" fill="white" fill-opacity="0.6"/>
<rect x="710" y="60" width="16" height="16" fill="white" fill-opacity="0.4"/>
<rect x="730" y="60" width="16" height="16" fill="white" fill-opacity="0.6"/>
<rect x="750" y="60" width="16" height="16" fill="white" fill-opacity="0.4"/>
</g>
<g clip-path="url(#clip7_584_1580)">
<rect x="490" y="140" width="16" height="16" fill="white" fill-opacity="0.6"/>
<rect x="510" y="140" width="16" height="16" fill="white"/>
<rect x="530" y="140" width="16" height="16" fill="white"/>
<rect x="550" y="140" width="16" height="16" fill="white" fill-opacity="0.4"/>
<rect x="570" y="140" width="16" height="16" fill="white"/>
<rect x="590" y="140" width="16" height="16" fill="white" fill-opacity="0.4"/>
<rect x="610" y="140" width="16" height="16" fill="white"/>
<rect x="650" y="140" width="16" height="16" fill="white" fill-opacity="0.4"/>
<rect x="670" y="140" width="16" height="16" fill="white"/>
<rect x="690" y="140" width="16" height="16" fill="white" fill-opacity="0.4"/>
<rect x="710" y="140" width="16" height="16" fill="white" fill-opacity="0.6"/>
<rect x="730" y="140" width="16" height="16" fill="white" fill-opacity="0.4"/>
<rect x="750" y="140" width="16" height="16" fill="white" fill-opacity="0.4"/>
</g>
</g>
</g>
<defs>
<radialGradient id="paint0_radial_584_1580" cx="0" cy="0" r="1" gradientTransform="matrix(-306 255 -364.486 -257.411 687 3.57568e-05)" gradientUnits="userSpaceOnUse">
<stop stop-color="#DFECFF"/>
<stop offset="1" stop-color="white"/>
</radialGradient>
<radialGradient id="paint1_radial_584_1580" cx="0" cy="0" r="1" gradientUnits="userSpaceOnUse" gradientTransform="translate(761 107) rotate(158.72) scale(407.804 608.507)">
<stop stop-color="#F1DFFF"/>
<stop offset="1" stop-color="white" stop-opacity="0"/>
</radialGradient>
<radialGradient id="paint2_radial_584_1580" cx="0" cy="0" r="1" gradientUnits="userSpaceOnUse" gradientTransform="translate(744.864 56.1673) rotate(161.236) scale(269.17 467.187)">
<stop stop-color="#D9D9D9"/>
<stop offset="1" stop-opacity="0"/>
</radialGradient>
<clipPath id="clip0_584_1580">
<rect width="276" height="16" fill="white" transform="translate(490)"/>
</clipPath>
<clipPath id="clip1_584_1580">
<rect width="276" height="16" fill="white" transform="translate(490 80)"/>
</clipPath>
<clipPath id="clip2_584_1580">
<rect width="276" height="16" fill="white" transform="translate(490 40)"/>
</clipPath>
<clipPath id="clip3_584_1580">
<rect width="276" height="16" fill="white" transform="translate(490 120)"/>
</clipPath>
<clipPath id="clip4_584_1580">
<rect width="276" height="16" fill="white" transform="translate(490 20)"/>
</clipPath>
<clipPath id="clip5_584_1580">
<rect width="276" height="16" fill="white" transform="translate(490 100)"/>
</clipPath>
<clipPath id="clip6_584_1580">
<rect width="276" height="16" fill="white" transform="translate(490 60)"/>
</clipPath>
<clipPath id="clip7_584_1580">
<rect width="276" height="16" fill="white" transform="translate(490 140)"/>
</clipPath>
</defs>
</svg>
