<svg preserveAspectRatio="none" width="100%" height="100%" overflow="visible" style="display: block;" viewBox="0 0 48 48" fill="none" xmlns="http://www.w3.org/2000/svg">
<g id="Overlay">
<path id="Polygon 2" d="M11.5 0.288675C11.8094 0.110043 12.1906 0.110042 12.5 0.288675L21.8923 5.71132C22.2017 5.88996 22.3923 6.22008 22.3923 6.57735V17.4226C22.3923 17.7799 22.2017 18.11 21.8923 18.2887L12.5 23.7113C12.1906 23.89 11.8094 23.89 11.5 23.7113L2.1077 18.2887C1.7983 18.11 1.6077 17.7799 1.6077 17.4226V6.57735C1.6077 6.22009 1.79829 5.88996 2.1077 5.71132L11.5 0.288675Z" fill="var(--fill-0, #4A83F2)"/>
<foreignObject x="2.81347" y="0.406081" width="44.3731" height="49.3812"><div xmlns="http://www.w3.org/1999/xhtml" style="backdrop-filter:blur(2px);clip-path:url(#bgblur_0_0_21_clip_path);height:100%;width:100%"></div></foreignObject><path id="Polygon 1" data-figma-bg-blur-radius="4" d="M24.25 5.10742C24.7141 4.83947 25.2859 4.83947 25.75 5.10742L41.9365 14.4521C42.4005 14.72 42.6864 15.2152 42.6865 15.751V34.4424C42.6864 34.9781 42.4005 35.4733 41.9365 35.7412L25.75 45.0859C25.2859 45.3539 24.7141 45.3539 24.25 45.0859L8.06348 35.7412C7.59949 35.4733 7.31362 34.9781 7.31348 34.4424V15.751C7.31362 15.2152 7.59949 14.72 8.06348 14.4521L24.25 5.10742Z" fill="var(--fill-0, #4A83F2)" fill-opacity="0.24" stroke="url(#paint0_linear_0_21)"/>
<g id="SVG" clip-path="url(#clip1_0_21)">
<path id="Vector" d="M21.6667 16.7633V20.0967" stroke="var(--stroke-0, white)" stroke-width="2" stroke-linecap="round" stroke-linejoin="round"/>
<path id="Vector_2" d="M28.3333 16.7633V20.0967" stroke="var(--stroke-0, white)" stroke-width="2" stroke-linecap="round" stroke-linejoin="round"/>
<path id="Vector_3" d="M30.8333 18.43H19.1667C18.2462 18.43 17.5 19.1762 17.5 20.0967V31.7633C17.5 32.6838 18.2462 33.43 19.1667 33.43H30.8333C31.7538 33.43 32.5 32.6838 32.5 31.7633V20.0967C32.5 19.1762 31.7538 18.43 30.8333 18.43Z" stroke="var(--stroke-0, white)" stroke-width="2" stroke-linecap="round" stroke-linejoin="round"/>
<path id="Vector_4" d="M17.5 23.43H32.5" stroke="var(--stroke-0, white)" stroke-width="2" stroke-linecap="round" stroke-linejoin="round"/>
</g>
</g>
<defs>
<clipPath id="bgblur_0_0_21_clip_path" transform="translate(-2.81347 -0.406081)"><path d="M24.25 5.10742C24.7141 4.83947 25.2859 4.83947 25.75 5.10742L41.9365 14.4521C42.4005 14.72 42.6864 15.2152 42.6865 15.751V34.4424C42.6864 34.9781 42.4005 35.4733 41.9365 35.7412L25.75 45.0859C25.2859 45.3539 24.7141 45.3539 24.25 45.0859L8.06348 35.7412C7.59949 35.4733 7.31362 34.9781 7.31348 34.4424V15.751C7.31362 15.2152 7.59949 14.72 8.06348 14.4521L24.25 5.10742Z"/>
</clipPath><linearGradient id="paint0_linear_0_21" x1="6.625" y1="6.19668" x2="44.95" y2="46.0967" gradientUnits="userSpaceOnUse">
<stop stop-color="#9EC7FF"/>
<stop offset="1" stop-color="#D8E8FF"/>
</linearGradient>
<clipPath id="clip1_0_21">
<rect width="20" height="20" fill="white" transform="translate(15 15.0967)"/>
</clipPath>
</defs>
</svg>
